<?xml version="1.0" encoding="utf-8"?>
<!-- Generator: Adobe Illustrator 19.2.1, SVG Export Plug-In . SVG Version: 6.00 Build 0)  -->
<svg version="1.1" id="レイヤー_1" xmlns="http://www.w3.org/2000/svg" xmlns:xlink="http://www.w3.org/1999/xlink" x="0px"
	 y="0px" width="160px" height="40px" viewBox="0 0 160 40" style="enable-background:new 0 0 160 40;" xml:space="preserve">
<style type="text/css">
	.st0{fill:#ED7014;}
	.st1{fill:#FFFFFF;}
</style>
<path class="st0" d="M160,40.2H0v-35c0-2.8,2.2-5,5-5h150c2.8,0,5,2.2,5,5V40.2z"/>
<g>
	<g>
		<path class="st1" d="M24.3,23.3c0,0.6-0.2,0.6-0.8,1c-0.1,0-0.5,0.3-0.8,1c0.3,0,0.5,0,1.1,0.1c0.8,0.1,4.8,0.9,5.7,1
			c1.5,0.3,2.9,0.4,4.4,0.4c1.3,0,1.7-0.1,2.4-0.2c0.1,0,0.6-0.1,0.7-0.1c0.1,0,0.2,0,0.2,0.2c0,0.3-1.7,1.6-1.7,1.6
			c-0.3,0.2-1,0.7-1.8,0.7c-1.4,0-3.6-0.7-4.2-0.9l-4.1-1.3c-0.9-0.3-1.9-0.5-2.9-0.6c-0.9,1.4-1.1,1.6-1.6,1.6c-0.7,0-1-0.9-1-1.3
			c0-0.3,0.1-0.4,0.3-0.5c1.7-1,1.8-1.1,2.3-1.7v-3l-1.1,0.1c-0.2,0-0.9,0.3-1.1,0.3c-0.1,0-0.5-0.1-0.5-0.5c0-0.4,0.3-0.9,0.9-0.9
			c0.1,0,0.5,0.1,0.6,0.1l1.1-0.1c0.4-0.5,0.9-0.7,1.2-0.7c0.3,0,0.9,0.1,0.9,0.7c0,0.1-0.1,0.7-0.1,0.8L24.3,23.3z M23.4,16.6
			c-0.1,0-3-0.3-3-1.4c0-0.5,0.5-1.1,1.2-1.1c1.2,0,2.3,1.8,2.3,2.2C23.9,16.6,23.6,16.6,23.4,16.6z M34.2,14.9
			c0.1-0.3,0.5-0.7,0.8-0.7c0.4,0,1.1,0.5,1.1,1c0,0.4-0.4,0.5-0.7,0.5h-4.1c-0.5,0.6-2,1.7-2.5,1.7c-0.1,0-0.1,0-0.1-0.1
			c0,0,0.7-0.9,0.8-1h-1.8c-0.1,1-0.1,1.3-0.1,1.9h0.5c0.2-0.2,0.5-0.5,0.9-0.5c0.3,0,1,0.4,1,0.8c0,0.1-0.1,0.3-0.1,0.4
			c-0.2,4.5-0.6,6.4-2.2,6.4c-1,0-1.7-1.5-1.7-1.6c0-0.1,0-0.1,0.1-0.1c0.1,0,0.8,0.2,1,0.2c0.5,0,0.7-0.4,0.8-1.2
			c0.1-0.5,0.3-2.1,0.3-3.8h-0.6c-0.2,2.1-0.8,4.5-2.8,5.6c-0.1,0.1-0.6,0.3-0.7,0.3c-0.1,0-0.2,0-0.2-0.1c0,0,0.4-0.5,0.5-0.6
			c1.5-2,1.5-5.5,1.5-7.7h-0.4c-0.1,0-0.8,0.2-0.9,0.2c-0.2,0-0.5-0.1-0.5-0.4c0-0.3,0.3-0.7,0.6-0.7c0.1,0,0.4,0.1,0.5,0.1H26
			c0-0.5-0.1-1-0.1-1.5c-0.2-0.2-0.4-0.3-0.4-0.5c0-0.5,1.2-1.1,1.7-1.1c0.4,0,0.8,0.2,0.8,0.6c0,0.1-0.1,0.4-0.1,0.5
			c-0.1,1.1-0.2,1.5-0.2,2h0.4c0.3-0.5,0.6-0.6,0.8-0.6c0.2,0,0.5,0.2,0.9,0.8c0-0.1,0.6-1.2,0.9-2.3c0.1-0.5,0.2-0.9,1-0.9
			c0.6,0,1.1,0.4,1.1,0.8c0,0.3-0.9,1.6-0.9,1.6H34.2z M34.8,20.5c0.2-0.3,0.6-0.8,0.9-0.8c0.4,0,1.1,0.6,1.1,1.1
			c0,0.4-0.4,0.5-0.7,0.5H34c0,0.4,0.1,1,0.1,1.6c0,1.9-0.8,3-1.9,3c-1.2,0-2.2-1.5-2.2-1.7c0-0.1,0.1-0.1,0.1-0.1c0,0,0.1,0,0.1,0
			c0,0,0.6,0.2,1.1,0.2c0.8,0,0.9-1.6,0.9-2.5c0-0.1,0-0.5,0-0.6h-1.4c-0.1,0-0.5,0.2-0.6,0.2c-0.2,0-0.4-0.1-0.4-0.3
			c0-0.3,0.3-0.7,0.7-0.7c0.1,0,0.4,0.1,0.5,0.1h1.1c0-0.3-0.2-1.2-0.5-1.4c0-0.1-0.2-0.2-0.2-0.2c0-0.3,0.7-0.5,0.9-0.5
			c0.2,0,0.3,0.1,0.4,0.1c0.3-0.5,0.3-0.7,0.4-0.9l-1.7,0c-0.1,0-0.6,0.2-0.8,0.2c-0.3,0-0.4-0.2-0.4-0.4c0-0.4,0.3-0.7,0.6-0.7
			c0.1,0,0.4,0.1,0.5,0.1h2c0.2-0.3,0.6-0.5,0.8-0.5c0.4,0,1.3,0.5,1.3,1c0,0.2-0.1,0.2-0.6,0.6c-0.3,0.2-1.3,1.1-1.4,1.2
			c0.3,0.7,0.3,1,0.4,1.2H34.8z"/>
		<path class="st1" d="M53.8,25.7c-1.4,0-5-4-6.6-5.7c-0.8-0.8-1.3-1.4-1.7-1.4c-0.4,0-0.5,0.1-1.6,1.3c-0.6,0.7-1.5,1.7-2.2,2.4
			c-0.1,0.1-0.4,0.3-0.7,0.3c-0.7,0-1.6-1.2-1.6-1.6c0-0.4,0.3-0.4,0.5-0.4c0.8,0,1.8-0.9,2.8-1.7c0.3-0.2,1.4-1.3,1.7-1.5
			c0.4-0.3,0.7-0.4,1.1-0.4c0.7,0,1.1,0.4,2.3,1.5c3.6,3.4,5.2,4.3,5.9,4.8c0.2,0.1,0.8,0.5,1.5,0.5c0.2,0,0.5,0,0.5,0.4
			C55.8,24.6,54.4,25.7,53.8,25.7z M51.3,17.6c-1.1,0-2.5-1-2.5-1.5c0-0.4,0.6-1.2,1-1.2c0.2,0,0.2,0.1,0.3,0.4
			c0.2,0.5,0.6,0.8,1.5,1.5c0.3,0.3,0.3,0.3,0.3,0.4C51.9,17.5,51.6,17.6,51.3,17.6z M50.7,14.6c0-0.5,0.7-1.2,1-1.2
			c0.2,0,0.2,0.1,0.3,0.4c0.2,0.5,0.9,1.1,1.4,1.6c0.3,0.3,0.3,0.3,0.3,0.4c0,0.2-0.3,0.4-0.6,0.4C52.1,16.2,50.7,15.1,50.7,14.6z"
			/>
		<path class="st1" d="M66.7,19.6c2,0,4.3,1.1,4.3,3.7c0,3.2-2.8,4.6-5.2,4.6c-1.9,0-3.3-0.8-3.3-2.2c0-1.2,1.2-2.1,2.3-2.1
			c1.1,0,1.5,0.6,2.1,1.3c0.2,0.2,0.2,0.3,0.5,0.4c0.2,0.1,0.2,0.2,0.2,0.3c0,0.4-1.1,1-1.5,1c-0.3,0-0.3-0.1-0.3-0.4
			c-0.1-0.6-0.5-1.2-1.1-1.2c-0.5,0-0.7,0.4-0.7,0.7c0,0.8,1.3,1,1.9,1c1.1,0,3.4-0.8,3.4-3c0-1.8-1.5-2.6-3-2.6
			c-2.7,0-4.5,2.7-5.3,4c-0.2,0.3-0.3,0.5-0.7,0.5c-0.5,0-1.2-1.1-1.2-1.6c0-0.3,0.1-0.3,0.6-0.6c0.3-0.2,2.2-1.9,3.8-4.1
			c0.3-0.4,1.7-2.5,1.7-2.7c0-0.1-0.1-0.2-0.2-0.2c-0.7,0-1.7,0.3-2.8,0.6c-0.2,0.1-0.6,0.2-0.8,0.2c-0.3,0-0.5-0.3-0.5-0.6
			c0-0.6,0.3-1.2,0.8-1.6c0.2,0.1,0.3,0.2,0.6,0.2c0.4,0,2.6-0.1,3.4-0.3c0.1,0,0.8-0.4,1-0.4c0.5,0,1.5,0.7,1.5,1.3
			c0,0.3-0.1,0.4-0.8,0.8c-0.4,0.3-2.3,2.6-3.1,3.6C65.5,19.7,66.3,19.6,66.7,19.6z"/>
		<path class="st1" d="M87.8,24.8c0.1,0,0.4,0,0.4,0c0.2,0,0.3,0.2,0.3,0.3c0,0.3-0.8,2-1.5,2c-1.2,0-3.4-2.5-4.6-4.3
			c-0.8,0.9-2.6,2.8-5.1,3.9c-0.7,0.3-1,0.3-1,0.3c-0.5,0-1.8-0.9-1.8-1.4c0-0.3,0.1-0.3,0.9-0.6c1.3-0.4,2.3-0.7,3.8-1.7
			c3.1-2.1,3.9-4.4,4.4-5.7c-1.7,0-3.1,0-4.5,0.2c-0.3,0-1.4,0.3-1.7,0.3c-0.4,0-0.6-0.3-0.6-0.7c0-0.4,0.2-1.1,0.7-1.7
			C78.1,16,78.4,16,79,16c1.7,0,4.9,0,5.1-0.1c0.1,0,0.4-0.3,0.5-0.3c0.1-0.1,0.3-0.1,0.3-0.1c0.4,0,0.6,0.3,0.6,0.7
			c0,0.6-0.7,3.3-2.3,5.5C84.1,22.8,86.8,24.8,87.8,24.8z"/>
		<path class="st1" d="M95.3,24.5C94.7,25,93.6,26,92.9,26c-0.5,0-1.5-0.8-1.5-1.2c0-0.3,0.1-0.3,1-0.7c0.4-0.2,2.5-1,3.2-2.8
			c0-0.1,0.2-0.6,0.2-0.6c0.1-0.1,0.3-0.2,0.4-0.2c0.5,0,0.6,0.4,0.6,0.7C96.8,22.1,96.1,23.5,95.3,24.5z M103.6,17.5
			c0.2,0,1.3-0.1,1.5-0.1c0.3,0,0.6,0,0.6,0.5c0,0.5-0.7,1.7-1.3,1.7c-0.1,0-0.8-0.1-1-0.2c-1.1-0.2-1.9-0.2-3.8-0.2
			c0,0.7,0,2.2,0,3.5c0,0.6,0.1,3.4,0.1,4c0,1.2-0.5,1.6-0.9,1.6c-0.5,0-1-1-1-1.5c0-0.1,0.1-0.5,0.1-0.6c0.1-0.7,0.3-2.6,0.3-7
			c-1.7,0-2.9,0.2-3,0.2c-0.3,0.1-1.8,0.5-2.1,0.5c-0.4,0-0.6-0.4-0.6-0.7c0-0.4,0.4-1.3,0.9-1.7c0.4,0.2,0.6,0.2,1.1,0.2
			c1,0,2.1,0,3.6-0.1c0-0.2,0-2.1-0.1-2.3c-0.2-0.3-0.3-0.4-0.3-0.6c0-0.7,0.8-1.3,1.4-1.3c0.4,0,0.8,0.3,0.8,0.8
			c0,0.2-0.1,0.9-0.2,1c-0.1,0.4-0.1,1.9-0.1,2.3C100.2,17.6,103,17.6,103.6,17.5z M105,26.4c-1.5,0-3.5-3.9-3.5-5.2
			c0-0.1,0-0.8,0.6-0.8c0.7,0,0.7,0.5,0.7,0.8c0,0.6,1.5,3,3.1,3c0.1,0,0.6-0.1,0.8-0.1c0.1,0,0.2,0.1,0.2,0.3
			C106.8,24.9,105.9,26.4,105,26.4z M104.1,16.3c-1,0-1.9-0.8-1.9-1.9s0.8-1.9,1.9-1.9s1.9,0.9,1.9,1.9
			C105.9,15.5,105.1,16.3,104.1,16.3z M104,13.4c-0.6,0-1,0.5-1,1.1c0,0.6,0.5,1.1,1,1.1c0.6,0,1.1-0.5,1.1-1.1
			C105.1,13.9,104.6,13.4,104,13.4z"/>
		<path class="st1" d="M110.4,20.3c-0.6-0.3-0.6-0.3-0.6-0.5c0-0.3,0.9-1.2,1.2-1.2c0.6,0,2.2,2.7,2.2,3.3c0,0.2-0.1,0.6-0.4,0.6
			c-0.2,0-0.3-0.1-0.6-0.5C111.9,21.8,111,20.7,110.4,20.3z M117.2,23.1c1.3-1.7,1.4-3.5,1.4-3.7c0-0.1-0.1-0.6-0.1-0.7
			c0-0.4,0.6-0.6,1-0.6c0.3,0,0.6,0.1,0.6,0.5c0,0-0.4,1.5-0.5,1.7c-1.3,6.1-6.4,7.6-6.9,7.6c-0.5,0-1.7-0.7-1.7-1.1
			c0-0.2,0.2-0.3,0.4-0.4c0.6-0.1,0.6-0.2,1.2-0.3C115,25.4,116.4,24.2,117.2,23.1z M113.2,19.5c-0.4-0.3-0.6-0.4-0.6-0.5
			c0-0.4,0.9-1.2,1.2-1.2c0.6,0,2.2,2.6,2.2,3.2c0,0.1,0,0.6-0.4,0.6c-0.2,0-0.3-0.1-0.6-0.5C114.8,21,113.9,19.9,113.2,19.5z"/>
		<path class="st1" d="M125.1,18c0-0.7,0-1.9-0.1-2.4c0-0.2-0.3-0.9-0.3-1c0-0.7,0.9-0.9,1.5-0.9c0.3,0,0.8,0.1,0.8,0.6
			c0,0.3-0.2,1.3-0.3,1.6c0,0.6-0.1,2.3-0.1,2.8c1.4,0.1,1.9,0.3,4.1,1.5c1.5,0.8,1.9,0.8,2.5,0.8c0.1,0,0.3,0.1,0.3,0.3
			c0,0.6-1.1,1.7-1.7,1.7c-0.3,0-0.5-0.1-1-0.5c-0.6-0.5-2.5-1.7-3.4-2c-0.4-0.1-0.6-0.2-0.9-0.2c0,1.6,0.1,3,0.1,5.5
			c0,0.2,0.1,1.3,0.1,1.5c0,0.3-0.1,0.9-0.6,0.9c-0.2,0-1.5-0.2-1.5-1.1c0-0.3,0.2-1.4,0.3-1.7c0-0.3,0.1-3.3,0.1-5.3V18z"/>
	</g>
</g>
</svg>
