<?xml version="1.0" encoding="utf-8"?>
<!-- Generator: Adobe Illustrator 19.2.1, SVG Export Plug-In . SVG Version: 6.00 Build 0)  -->
<svg version="1.1" id="レイヤー_1" xmlns="http://www.w3.org/2000/svg" xmlns:xlink="http://www.w3.org/1999/xlink" x="0px"
	 y="0px" width="160px" height="40px" viewBox="0 0 160 40" style="enable-background:new 0 0 160 40;" xml:space="preserve">
<style type="text/css">
	.st0{fill:#009245;}
	.st1{fill:#FFFFFF;}
</style>
<path class="st0" d="M160,40H0V5c0-2.8,2.2-5,5-5h150c2.8,0,5,2.2,5,5V40z"/>
<g>
	<g>
		<path class="st1" d="M54.2,19.7c0,0.6-0.9,0.9-1.4,0.9c-0.9,0-2.5-0.6-3.2-1c-0.1-0.1-0.4-0.3-0.4-0.6c0-0.5,0.5-1.6,1-1.6
			c0.1,0,0.4,0,0.5,0.4c0.4,0.4,2.3,1.2,3.2,1.6C54,19.3,54.2,19.4,54.2,19.7z M59.3,19.5c0.3-0.4,0.7-1,1-1.4
			c0.1-0.1,0.2-0.2,0.4-0.2c0.2,0,0.4,0.3,0.4,0.8c0,0.6,0,1.5-1.7,3.4c-2.3,2.5-6,4.7-9.1,4.7c-0.3,0-1.1,0-1.1-0.8
			c0-0.4,0.3-1.9,0.8-1.9c0,0,0.3,0,0.7,0.3C51.7,24.5,56,24,59.3,19.5z M55.6,16.8c0,0.6-1,0.8-1.4,0.8c-0.9,0-2.5-0.7-3.1-1
			c-0.1-0.1-0.4-0.3-0.4-0.6c0-0.4,0.5-1.6,1.1-1.6c0.3,0,0.4,0.2,0.5,0.4c0.1,0.1,1.1,0.8,1.3,0.9c0.4,0.2,0.7,0.4,1.8,0.8
			C55.5,16.4,55.6,16.5,55.6,16.8z"/>
		<path class="st1" d="M71.2,26.6c-1.5,0-3.9,0.1-5.2,0.4c-0.1,0-0.7,0.2-0.8,0.2c-0.3,0-0.5-0.3-0.5-0.6s0.2-0.9,0.6-1.2
			c0.3,0.1,0.5,0.1,0.8,0.1c0.5,0,4.7-0.1,5.4-0.1c0-0.3,0.1-1.9,0.2-2.2c-2.1,0-3.7,0.1-4.1,0.1c-0.3,0-1.3,0.1-1.5,0.1
			c-0.5,0-0.6-0.4-0.6-0.5c0-0.3,0.2-0.6,0.6-1.1c0.5,0.2,0.6,0.2,1.4,0.2c0.7,0,3.6,0,4.2,0c0-0.5,0.1-1.2,0.1-1.7
			c0-0.4-0.1-0.4-0.7-0.4c-1,0-3.2,0-5,0.3c-0.1,0-0.7,0.2-0.8,0.2c-0.3,0-0.5-0.4-0.5-0.6c0-0.3,0.4-0.9,0.7-1.1
			c0.2,0.1,0.4,0.1,0.5,0.1c0.1,0,1.1-0.1,1.3-0.1c0.6,0,3.1,0,3.7,0c0.6,0,0.7,0,0.9-0.1c0.6-0.3,0.6-0.3,0.8-0.3
			c0.5,0,0.9,0.4,0.9,0.8c0,0.2-0.3,0.8-0.3,0.9c-0.1,0.8-0.4,4.5-0.5,5.2c0.9,0.2,0.9,0.7,0.9,0.8c0,0.4-0.4,0.6-0.7,0.6
			C72.6,26.7,71.7,26.6,71.2,26.6z"/>
		<path class="st1" d="M77.7,20.1c-0.6-0.3-0.6-0.3-0.6-0.5c0-0.3,0.9-1.2,1.2-1.2c0.6,0,2.2,2.7,2.2,3.3c0,0.2-0.1,0.6-0.4,0.6
			c-0.2,0-0.3-0.1-0.6-0.5C79.2,21.6,78.3,20.4,77.7,20.1z M84.5,22.9c1.3-1.7,1.4-3.5,1.4-3.7c0-0.1-0.1-0.6-0.1-0.7
			c0-0.4,0.6-0.6,1-0.6c0.3,0,0.6,0.1,0.6,0.5c0,0-0.4,1.5-0.5,1.7c-1.3,6.1-6.4,7.6-6.9,7.6c-0.5,0-1.7-0.7-1.7-1.1
			c0-0.2,0.2-0.3,0.4-0.4c0.6-0.1,0.6-0.2,1.2-0.3C82.3,25.1,83.7,24,84.5,22.9z M80.5,19.2c-0.4-0.3-0.6-0.4-0.6-0.5
			c0-0.4,0.9-1.2,1.2-1.2c0.6,0,2.2,2.6,2.2,3.2c0,0.1,0,0.6-0.4,0.6c-0.2,0-0.3-0.1-0.6-0.5C82.1,20.8,81.2,19.6,80.5,19.2z"/>
		<path class="st1" d="M94.1,16.2c0.6,0,6.5-0.1,6.6-0.1c0.1,0,0.8-0.3,0.9-0.3c0.3,0,0.6,0.3,0.6,0.8c0,0.6-0.7,5-3.9,7.9
			c-1.9,1.7-3.4,2.2-4.3,2.5c-0.2,0.1-0.7,0.2-1,0.2c-0.8,0-1.7-1.3-1.7-1.6c0-0.3,0.1-0.4,1.2-0.6c0.1,0,1.3-0.3,2.3-0.9
			c4.1-2,4.9-4.2,5.7-6.4c-3.3,0-6.4,0.2-7.2,0.3c-0.3,0-1.4,0.4-1.7,0.4c-0.4,0-0.6-0.4-0.6-0.8c0-0.4,0.2-1.4,0.9-1.6
			C92.4,16.1,92.8,16.2,94.1,16.2z M104,16.4c-1,0-1.9-0.8-1.9-1.9c0-1,0.9-1.9,1.9-1.9c1,0,1.9,0.8,1.9,1.9S105.1,16.4,104,16.4z
			 M104,13.4c-0.6,0-1.1,0.5-1.1,1c0,0.6,0.5,1.1,1.1,1.1c0.6,0,1.1-0.5,1.1-1.1C105.1,13.9,104.6,13.4,104,13.4z"/>
	</g>
</g>
</svg>
