<?xml version="1.0" encoding="utf-8"?>
<!-- Generator: Adobe Illustrator 19.2.1, SVG Export Plug-In . SVG Version: 6.00 Build 0)  -->
<svg version="1.1" id="レイヤー_1" xmlns="http://www.w3.org/2000/svg" xmlns:xlink="http://www.w3.org/1999/xlink" x="0px"
	 y="0px" width="160px" height="42px" viewBox="0 0 160 42" style="enable-background:new 0 0 160 42;" xml:space="preserve">
<style type="text/css">
	.st0{fill:#ED7014;}
	.st1{fill:#FFFFFF;}
	.st2{fill:#333333;}
</style>
<path class="st0" d="M17.5,0.9C7.8,0.9,0,8.7,0,18.3c0,13.5,17.5,23.1,17.5,23.1S35,31.9,35,18.3C35,8.7,27.1,0.9,17.5,0.9z
	 M17.5,31.4c-7.4,0-13.3-6-13.3-13.3c0-7.4,6-13.3,13.3-13.3s13.3,6,13.3,13.3C30.8,25.4,24.9,31.4,17.5,31.4z"/>
<circle class="st1" cx="17.5" cy="17.9" r="13.5"/>
<g>
	<path class="st0" d="M11.5,18.7c-0.2,0-1.2,0-1.3,0.1c-0.1,0-0.7,0.3-0.8,0.3S9,18.9,9,18.6c0-0.3,0.2-0.8,0.7-0.8
		c0.1,0,0.5,0.1,0.6,0.1c0.1,0,0.8,0,1.1-0.1c0.4-0.4,0.7-0.6,1-0.6c0.3,0,0.7,0.2,0.7,0.6c0,0.1-0.1,0.6-0.2,0.7c0,0.1,0,1.8,0,2.1
		c0,0.7,0,0.7-0.5,1c-0.2,0.1-0.5,0.3-1.1,1.1c0.6,0.1,1.3,0.2,1.9,0.2c0.7,0.1,3.9,0.6,4.6,0.7c3,0.4,3.3,0.5,4.3,0.5
		c0.9,0,1.5,0,2.3-0.2c0.1,0,0.4-0.1,0.5-0.1c0.1,0,0.2,0,0.2,0.2c0,0.2-0.6,0.6-1.3,1.2c-0.7,0.5-1,0.7-1.7,0.7
		c-1,0-1.8-0.2-3.9-0.8L14,24c-1.1-0.3-1.9-0.5-2.6-0.5c-0.1,0-0.2,0-0.3,0c-0.1,0.2-0.7,1-0.9,1.2C10.2,24.8,10,25,9.6,25
		c-0.6,0-0.8-0.7-0.8-1c0-0.3,0.2-0.4,0.3-0.5c0.8-0.5,1.5-1,2.4-1.9V18.7z M12.4,14.5c-0.3,0-2.9-0.6-2.9-1.4
		c0-0.4,0.4-0.9,0.9-0.9c0.9,0,2.2,1.4,2.2,2.1C12.7,14.4,12.5,14.5,12.4,14.5z M16.9,16c0.3-0.4,0.7-0.4,0.7-0.4
		c0.3,0,0.8,0.3,0.8,0.6c0,0.1,0,0.2-0.1,0.4c-0.1,3.5-0.3,5.9-1.9,5.9c-0.6,0-1.2-0.6-1.5-1.3l0-0.1c0,0,0-0.1,0.1-0.1
		c0.1,0,0.8,0.2,0.9,0.2c0.6,0,0.7-0.5,0.7-0.7c0.3-1.5,0.3-3.4,0.3-4.1h-0.8c-0.2,2.6-1,3.8-1.8,4.7c-0.4,0.5-1,0.9-1.2,0.9
		c-0.1,0-0.1,0-0.1-0.1c0-0.1,0.3-0.4,0.4-0.5c1.6-2.1,1.6-5.9,1.6-7.1v-0.3h-0.6c-0.1,0-0.4,0-0.6,0.1c-0.1,0-0.4,0.2-0.5,0.2
		c-0.2,0-0.3-0.1-0.3-0.3c0-0.3,0.2-0.6,0.5-0.6c0.1,0,0.4,0.1,0.4,0.1h1.1c0-0.7,0-1.4-0.1-1.5c0-0.1-0.3-0.4-0.3-0.5
		c0-0.4,0.7-0.9,1.2-0.9c0.1,0,0.6,0,0.6,0.6l0,0.4c0,0.4-0.1,1.6-0.1,2h0.6c0.1-0.3,0.5-0.5,0.7-0.5c0.3,0,0.8,0.4,0.8,0.8
		c0,0.2-0.3,0.4-0.5,0.4h-1.5c-0.1,1-0.1,1.3-0.1,1.9H16.9z M22.6,12.7c0.2-0.4,0.5-0.6,0.7-0.6c0.4,0,0.9,0.4,0.9,0.8
		c0,0.4-0.5,0.4-0.7,0.4H20c-0.5,0.7-1.6,1.6-2.2,1.6c-0.1,0-0.1-0.1-0.1-0.1c0,0,0.6-0.9,0.7-1c0.6-1,1-2.3,1.1-2.5
		c0.1-0.4,0.1-0.9,0.8-0.9c0.3,0,0.8,0.2,0.8,0.6c0,0.4-0.5,1.2-0.7,1.7H22.6z M23.2,18c0.1-0.3,0.5-0.6,0.7-0.6
		c0.3,0,0.9,0.4,0.9,0.8c0,0.3-0.2,0.4-0.5,0.4h-2.1c0.1,0.9,0.1,1.4,0.1,1.5c0,1.7-0.7,2.7-1.7,2.7c-1.1,0-1.8-1.3-1.8-1.3
		s0.1-0.1,0.1-0.1c0.1,0,0.7,0.2,1.1,0.2c0.8,0,0.9-1,0.9-2.5c0-0.2,0-0.3,0-0.5h-1.6c-0.1,0-0.5,0.2-0.6,0.2c-0.1,0-0.4,0-0.4-0.3
		c0-0.3,0.2-0.6,0.5-0.6c0.1,0,0.4,0.1,0.5,0.1h1.4c-0.1-0.3-0.2-0.9-0.3-1.1c0-0.1-0.4-0.3-0.4-0.4c0-0.3,0.4-0.4,0.6-0.4
		c0.3,0,0.4,0.2,0.5,0.2c0.4-0.7,0.5-0.8,0.6-1.1l-2,0c-0.1,0-0.5,0.2-0.6,0.2c-0.2,0-0.4-0.1-0.4-0.3c0-0.3,0.2-0.5,0.5-0.5
		c0.1,0,0.4,0,0.5,0h2.2c0.2-0.2,0.4-0.4,0.6-0.4c0.4,0,0.9,0.3,0.9,0.7c0,0.2-0.1,0.3-0.2,0.4c-0.4,0.4-1.2,1-1.7,1.4
		c0.2,0.3,0.4,0.9,0.4,1.2H23.2z"/>
</g>
<g>
	<g>
		<path class="st2" d="M46.6,20.3c0.3-0.3,0.6-0.5,1-0.5c0.5,0,0.5,0.4,0.5,0.6c0,0.1-0.1,0.5-0.1,0.6c0,0.2,0,2.2,0,2.5
			c0,0.6,0,0.6-0.7,1c-0.2,0.1-0.3,0.2-0.7,0.9c2.6,0.3,2.9,0.4,5.6,0.9c0.3,0.1,3.6,0.7,5.9,0.7c1.1,0,1.6-0.1,2-0.1
			c0.1,0,0.6-0.1,0.7-0.1c0.1,0,0.2,0,0.2,0.1c0,0.4-1.7,1.8-2.8,1.8c-0.9,0-3-0.5-3.9-0.8l-4.7-1.2c-2.2-0.5-2.4-0.6-3.4-0.6
			c-0.2,0.2-1,1.2-1.2,1.3c-0.1,0.1-0.2,0.1-0.4,0.1c-0.4,0-0.7-0.4-0.7-0.8c0-0.4,0.2-0.5,0.5-0.7c0.2-0.1,1.4-0.9,2.5-2
			c0-0.9,0-2.6,0-3l-1.7,0c-0.1,0-0.7,0.2-0.9,0.2c-0.2,0-0.4-0.1-0.4-0.3c0-0.1,0.1-0.8,0.5-0.8c0.1,0,0.5,0.1,0.6,0.1H46.6z
			 M47.2,16.5c-0.2,0-2.7-0.5-2.7-1.5c0-0.4,0.3-0.6,0.7-0.6c0.9,0,2.3,1.5,2.3,1.9C47.6,16.4,47.4,16.5,47.2,16.5z M52.3,15.4
			c0.2-0.4,0.4-0.5,0.6-0.5c0.4,0,0.7,0.5,0.7,0.8c0,0.4-0.1,0.4-1.5,0.4h-0.8c0,0.4,0,1.2-0.1,2.1h1c0.2-0.3,0.4-0.4,0.6-0.4
			c0.3,0,0.7,0.3,0.7,0.6c0,0.1,0,0.3-0.1,0.4c0,0.5-0.2,2.7-0.2,3.3c-0.1,1.5-0.4,3-1.6,3c-0.8,0-1.4-1.1-1.4-1.2
			c0-0.1,0-0.1,0.1-0.1c0.1,0,0.6,0.1,0.7,0.1c0.5,0,0.6,0,0.8-0.4c0.4-0.8,0.5-3.4,0.5-4.3c0-0.2,0-0.4-0.2-0.4h-1.1
			c-0.5,4.5-2.5,5.8-2.9,5.8c0,0-0.1,0-0.1-0.1c0-0.1,0.2-0.2,0.2-0.3c0.6-0.8,1-1.5,1.3-2.8c0.5-1.9,0.6-4.9,0.5-5.2h-0.8
			c-0.1,0-0.4,0-0.6,0c-0.1,0-0.4,0.1-0.5,0.1c-0.2,0-0.2-0.2-0.2-0.3c0-0.2,0.1-0.6,0.4-0.6c0.1,0,0.3,0.1,0.4,0.1h1.4
			c0-0.8-0.1-1.2-0.1-1.7c-0.3-0.1-0.3-0.4-0.3-0.5c0-0.4,0.6-0.9,1-0.9c0.3,0,0.5,0.2,0.5,0.6c0,0-0.1,0.5-0.1,0.5
			c0,0-0.1,1.9-0.1,2H52.3z M58.1,14.8c0.3-0.5,0.6-0.6,0.7-0.6c0.4,0,0.9,0.5,0.9,0.9c0,0.3-0.3,0.4-0.7,0.4h-3.9
			c-0.7,1-1.7,1.8-1.9,1.8c-0.1,0-0.2,0-0.2-0.1c0-0.1,0.4-0.6,0.5-0.7c0.8-1.2,1.4-2.6,1.5-3.3c0.1-0.4,0.1-0.7,0.6-0.7
			c0.3,0,0.8,0.2,0.8,0.6c0,0.2-0.1,0.8-0.8,1.9H58.1z M59,20.3c0.2-0.3,0.5-0.6,0.7-0.6c0.4,0,0.8,0.5,0.8,0.8
			c0,0.3-0.3,0.4-0.5,0.4h-2.4c0.1,0.9,0.1,1.5,0.1,1.6c0,1.7-0.7,2.7-1.7,2.7c-0.8,0-1.7-1-1.7-1.2c0,0,0-0.1,0.1-0.1
			c0.1,0,0.9,0.2,1,0.2c1,0,1.1-1,1.1-2.1c0-0.1,0-0.7,0-1h-1.7c-0.1,0-0.2,0-0.4,0.1c-0.1,0-0.4,0.1-0.4,0.1c-0.1,0-0.3,0-0.3-0.3
			c0-0.2,0.2-0.6,0.5-0.6c0.1,0,0.5,0.1,0.6,0.1h1.7c0-0.1-0.2-1-0.5-1.4c-0.2-0.1-0.3-0.2-0.3-0.3c0-0.2,0.3-0.4,0.5-0.4
			c0.2,0,0.3,0.2,0.4,0.3c0.5-0.6,0.6-0.7,0.7-1.1l-2,0c-0.1,0-0.5,0.2-0.6,0.2c-0.2,0-0.3-0.1-0.3-0.3s0.1-0.6,0.4-0.6
			c0.1,0,0.4,0,0.5,0h2.2c0.2-0.2,0.4-0.3,0.6-0.3c0.4,0,0.7,0.2,0.7,0.6c0,0.1,0,0.3-0.3,0.6c-0.2,0.1-1.5,1-1.7,1.2
			c0.1,0.2,0.4,1,0.5,1.4H59z"/>
		<path class="st2" d="M77.5,25.3c-1.2,0-4.9-3.9-6.6-5.8c-0.9-1-1.3-1.4-1.7-1.4c-0.4,0-0.5,0.1-1.5,1.2c-0.6,0.6-1.5,1.6-2,2.2
			c-0.2,0.2-0.5,0.5-0.9,0.5c-0.5,0-1.2-0.7-1.2-1.1c0-0.2,0.1-0.2,0.2-0.2c0.4,0,0.9,0,3-2.1c0.8-0.8,1.5-1.5,2.4-1.5
			c0.7,0,0.9,0.2,3,2.1c1.2,1.2,4.9,4.6,6.5,4.6c0.3,0,0.4,0,0.4,0.2C79.2,24.6,77.9,25.3,77.5,25.3z M75,17.4c-1,0-1.9-0.6-1.9-1
			c0-0.3,0.5-0.9,0.7-0.9c0.1,0,0.1,0.1,0.2,0.2c0.2,0.5,0.7,0.8,1.2,1.1c0.3,0.2,0.4,0.3,0.4,0.3C75.5,17.4,75.1,17.4,75,17.4z
			 M74.7,15c0-0.3,0.5-0.8,0.8-0.8c0.1,0,0.1,0.1,0.2,0.4c0.2,0.5,0.7,1,1,1.2c0.3,0.3,0.3,0.3,0.3,0.4c0,0.1-0.2,0.2-0.3,0.2
			C75.5,16.2,74.7,15.2,74.7,15z"/>
		<path class="st2" d="M90.1,19.7c1.9,0,3.9,1,3.9,3.5c0,3-2.4,4.3-4.9,4.3c-1.9,0-3.1-0.8-3.1-2c0-1.2,1.3-1.7,2.1-1.7
			c0.3,0,1.2,0,2,1.2c0.1,0.1,0.6,0.7,0.6,0.7c0,0.2-0.9,0.7-1.1,0.7c-0.1,0-0.1-0.1-0.3-0.5c-0.3-0.8-0.8-1.2-1.3-1.2
			c-0.6,0-0.9,0.3-0.9,0.8c0,0.8,1.6,1.1,2.1,1.1c1.3,0,3.7-0.9,3.7-3.2c0-1.8-1.4-2.8-3.2-2.8c-2.3,0-4.3,2-5.5,3.8
			c-0.3,0.5-0.4,0.6-0.6,0.6c-0.5,0-0.8-0.9-0.8-1.2c0-0.2,0.7-0.6,0.8-0.7c2.1-2.1,5.4-6.4,5.4-7.1c0-0.1-0.1-0.1-0.1-0.1
			c-1.2,0-2.5,0.3-3.4,0.5c-0.1,0-0.5,0.1-0.6,0.1c-0.2,0-0.3-0.1-0.3-0.3c0-0.4,0.2-1,0.5-1.2c0.1,0.1,0.3,0.2,0.6,0.2
			c0.5,0,3.3-0.1,3.8-0.4c0.5-0.3,0.6-0.3,0.7-0.3c0.3,0,1.1,0.3,1.1,0.8c0,0.3-0.1,0.3-0.6,0.7c-0.2,0.1-0.5,0.5-0.6,0.6
			c-0.6,0.8-2,2.5-3,3.7C88.6,19.7,89.8,19.7,90.1,19.7z"/>
		<path class="st2" d="M110.7,25.1c0.2,0,0.5,0,0.5,0.2c0,0.1-0.8,1.3-1.3,1.3c-1.2,0-3.4-2.4-4.6-4.3c-2.8,3.5-6,4.2-6.1,4.2
			c-0.3,0-1.5-0.6-1.5-0.9c0-0.2,0.1-0.2,1-0.4c1.3-0.3,4-1.6,6-3.9c1.5-1.8,2.1-3.9,2.1-4c0-0.1-0.1-0.1-0.8-0.1
			c-1.3,0-3,0.1-4.1,0.2c-0.3,0-1.4,0.3-1.6,0.3c-0.3,0-0.4-0.1-0.4-0.4c0-0.2,0.1-0.7,0.5-1.2c0.5,0.1,0.6,0.1,0.9,0.1
			c0.5,0,5.3,0,5.5-0.1c0.1,0,0.4-0.2,0.4-0.3c0.1-0.1,0.2-0.1,0.4-0.1c0.2,0,0.5,0.2,0.5,0.5c0,0.3-0.8,3.1-2.3,5.3
			C106.9,23,109.6,25.1,110.7,25.1z"/>
		<path class="st2" d="M118,23.5c-0.9,1.2-2.2,2-2.7,2c-0.4,0-1.2-0.5-1.2-0.8c0-0.1,0.1-0.2,0.8-0.5c2-0.7,3-2.4,3.2-3.2
			c0.1-0.4,0.1-0.6,0.5-0.6c0.3,0,0.5,0.2,0.5,0.5C119.1,21.5,118.6,22.8,118,23.5z M121.9,17.9c0.6,0,3.4-0.1,3.9-0.1
			c0.3,0,1.7-0.1,1.9-0.1c0.1,0,0.2,0.1,0.2,0.2c0,0.3-0.6,1.3-1.1,1.3c-0.3,0-1.3-0.3-1.6-0.3c-1-0.1-1.9-0.1-3.4-0.1
			c0,0.6,0,3.1,0,3.6c0,0.4,0.1,3.5,0.1,4.1c0,0.3,0,1.4-0.7,1.4c-0.5,0-0.9-0.8-0.9-1.1c0,0,0.1-0.9,0.1-1.1c0-0.5,0.2-2.7,0.2-3.2
			c0,0,0.1-2.9,0-3.8c-1.2,0-2.3,0.1-3.5,0.3c-0.3,0.1-1.5,0.4-1.8,0.4c-0.2,0-0.4-0.1-0.4-0.3c0-0.3,0.3-1,0.7-1.3
			c0.5,0.2,0.6,0.2,1.4,0.2c0.6,0,3-0.1,3.5-0.1c0-0.2-0.1-2.6-0.1-2.6c0-0.1-0.3-0.5-0.3-0.5c0-0.5,0.7-0.9,1.1-0.9
			c0.3,0,0.5,0.3,0.5,0.6c0,0.2-0.1,0.9-0.1,1c0,0.5-0.1,1.3-0.1,2.2V17.9z M124.1,21.1c0-0.4,0.2-0.5,0.4-0.5
			c0.4,0,0.4,0.2,0.5,0.5c0,0.6,1.5,3.3,3.2,3.3c0.1,0,0.6-0.1,0.7-0.1c0.1,0,0.1,0,0.1,0.1c0,0.5-0.8,1.5-1.6,1.5
			C126,26,124.1,22.2,124.1,21.1z M126.5,16.6c-0.9,0-1.5-0.7-1.5-1.5c0-0.8,0.7-1.5,1.5-1.5c0.9,0,1.6,0.7,1.6,1.5
			C128.1,15.9,127.4,16.6,126.5,16.6z M126.5,14.1c-0.6,0-1,0.5-1,1c0,0.5,0.4,1,1,1c0.6,0,1-0.5,1-1
			C127.5,14.6,127.1,14.1,126.5,14.1z"/>
		<path class="st2" d="M133,18.8c0.5,0,2.1,2.3,2.1,3c0,0.2-0.2,0.4-0.3,0.4c-0.2,0-0.3-0.1-0.9-0.8c-0.4-0.4-1.3-1.4-1.5-1.5
			c-0.2-0.1-0.3-0.1-0.3-0.3C132.1,19.3,132.8,18.8,133,18.8z M140.6,18.7c0-0.3,0.6-0.5,0.9-0.5c0.2,0,0.4,0.1,0.4,0.4
			c0,0.1-0.2,0.6-0.2,0.8c-1.4,6.6-6.2,8.1-7,8.1c-0.5,0-1.5-0.3-1.5-0.6c0-0.3,0.1-0.3,1-0.5c3.4-1,4.8-2.9,5.2-3.7
			c0.9-1.4,1.2-3.2,1.2-3.4C140.7,19.1,140.6,18.7,140.6,18.7z M135.8,17.9c0.5,0,2.1,2.3,2.1,3c0,0.2-0.1,0.4-0.3,0.4
			c-0.2,0-0.3-0.1-0.9-0.8c-0.3-0.4-1.3-1.4-1.5-1.5c-0.2-0.1-0.3-0.1-0.3-0.3C134.9,18.5,135.6,17.9,135.8,17.9z"/>
		<path class="st2" d="M146.8,17.9c0-0.1,0-2.2-0.1-2.3c0-0.2-0.3-1-0.3-1.1c0-0.6,1.2-0.6,1.4-0.6c0.2,0,0.4,0,0.4,0.5
			c0,0.2-0.2,1-0.2,1.2c0,0.3-0.1,3-0.1,3.3c1.5,0.2,2.3,0.6,4.1,1.5c0.7,0.3,2,1,2.7,1c0.1,0,0.2,0,0.2,0.1c0,0.4-1,1.1-1.4,1.1
			c-0.3,0-0.5-0.1-1.4-0.7c-1.7-1.3-3.1-1.8-4.1-1.9c0,1,0,2.6,0,3.6c0,0.1,0.2,3.3,0.2,3.8c0,0,0,0.6-0.4,0.6
			c-0.2,0-1.3-0.2-1.3-0.8c0-0.3,0.2-1.4,0.2-1.6c0-0.8,0.2-4.5,0.2-5.2V17.9z"/>
	</g>
</g>
</svg>
