<?xml version="1.0" encoding="utf-8"?>
<!-- Generator: Adobe Illustrator 19.2.1, SVG Export Plug-In . SVG Version: 6.00 Build 0)  -->
<svg version="1.1" id="レイヤー_1" xmlns="http://www.w3.org/2000/svg" xmlns:xlink="http://www.w3.org/1999/xlink" x="0px"
	 y="0px" width="120px" height="120px" viewBox="0 0 120 120" style="enable-background:new 0 0 120 120;" xml:space="preserve">
<style type="text/css">
	.st0{fill:#F15A24;}
	.st1{fill:#666666;stroke:#666666;stroke-width:0.2;stroke-miterlimit:10;}
	.st2{fill:#666666;}
	.st3{clip-path:url(#SVGID_2_);fill:#D84012;}
</style>
<path class="st0" d="M56.8,4.7c-18.1,0-32.7,14.6-32.7,32.7c0,25.3,32.7,38.3,32.7,38.3s32.7-13,32.7-38.3
	C89.5,19.4,74.9,4.7,56.8,4.7z M56.8,61.8c-13.8,0-25-11.2-25-25c0-13.8,11.2-25,25-25s25,11.2,25,25C81.8,50.6,70.6,61.8,56.8,61.8
	z"/>
<g>
	<path class="st1" d="M8.7,105.9c0.3-0.4,0.5-0.6,0.9-0.6c0.5,0,0.9,0.5,0.9,1c0,0.5-0.6,0.5-1,0.5c-0.2,0-1.5,0-2.1,0
		c-0.1,2.5-0.1,3.3-0.1,4.7c2.1,0.6,10.2,2.9,14.3,2.9c1.4,0,2.9-0.1,3-0.1c0.4-0.1,1.3-0.2,1.5-0.2c0.1,0,0.3,0.1,0.3,0.2
		c0,0.6-4,2.7-5.1,2.7c-2.8,0-9.5-2.5-10.6-2.9c-4.6-1.7-5-1.9-6.9-1.9c-1.2,2.5-2.5,3.2-3.1,3.5c-0.1,0-0.1,0.1-0.2,0.1
		c-0.1,0-0.2,0-0.2-0.2c0-0.1,0.7-0.9,0.8-1.1c1.5-2,1.9-5,1.9-6.9c0-0.2-0.2-1.1-0.2-1.3c0-0.4,0.5-1.1,1.1-1.1
		c0.9,0,0.9,1,0.9,1.3c0,0.3,0,2.3-0.7,4.8c0.2,0,0.4-0.1,0.5-0.1c0.6,0,0.9,0.1,1.2,0.1c0.1-1.9,0.1-2.9,0.1-5.5
		c0-0.2,0-1.3-0.1-1.5c0-0.1-0.2-0.5-0.2-0.6c0-0.1,0-0.5,0.5-0.9h-2c-0.1,0-1.3,0-1.3,0c-0.2,0-1.1,0.3-1.3,0.3s-0.5-0.1-0.5-0.4
		c0-0.1,0-1,0.8-1c0.1,0,0.2,0,0.4,0.1c0.3,0.1,2.9,0.1,3.6,0.1v-3.2H3.5c-0.2,0-1.2,0.3-1.4,0.3c-0.2,0-0.4-0.1-0.4-0.4
		c0-0.3,0.3-0.9,0.7-0.9c0.1,0,0.7,0.1,0.8,0.1h2.4c0-0.8,0-2-0.1-2.6c-0.2-0.2-0.2-0.5-0.2-0.6c0-0.7,0.8-1.5,1.6-1.5
		c0.3,0,0.7,0.2,0.7,0.8c0,0.2,0,0.3-0.1,0.6c-0.1,0.5-0.2,2.7-0.2,3.3h1.1C8.5,97.3,8.8,97,9.2,97c0.5,0,1.2,0.5,1.2,1.1
		c0,0.5-0.5,0.5-0.8,0.5H7.2c0,0.6-0.1,2.5-0.1,3.2l1.6,0c0.1-0.2,0.4-0.7,0.9-0.7c0.5,0,1.1,0.6,1.1,1.1c0,0.5-0.6,0.5-0.7,0.5
		c-0.4,0-2.4,0-2.9,0c0.2,0.4,0.2,0.7,0.2,1c0,0.1,0,1-0.1,2.3H8.7z M21.9,97c0.2-0.3,0.5-0.8,0.9-0.8c0.6,0,1.3,0.8,1.3,1.3
		c0,0.1,0,0.2-0.4,0.6c-0.3,2.6-0.8,4.5-2,7.1c1,1.4,2.3,2.6,3.7,3.5c0.1,0,1.1,0.7,1.1,0.8c0,0.3-2.1,1.1-2.5,1.1
		c-0.5,0-1.9-1.5-3.2-3.8c-1.6,2.1-3.3,3-4,3.4v0.9c0,0.7-0.4,1.6-1.2,1.6c-0.6,0-0.6-0.9-0.6-1.3c0-0.6,0.1-3.4,0.2-4
		c-2,1-4.4,2.1-5.2,2.1c-0.5,0-1.2-0.3-1.2-0.9c0-0.3,0.1-0.5,0.5-0.7c0.2-0.1,0.9-0.2,1.8-0.3c0.1-2,0.2-5.6,0.2-10.4
		c0-0.9,0-1.3-0.1-1.6h-0.7c-0.2,0-1,0.2-1.2,0.2c-0.2,0-0.4-0.2-0.4-0.4c0-0.3,0.2-0.9,0.6-0.9c0.1,0,0.7,0.1,0.8,0.1h7.2
		c0.2-0.3,0.6-0.8,1-0.8c0.6,0,1.3,0.7,1.3,1.3c0,0.5-0.5,0.5-0.9,0.5H17c-0.1,1.8-0.1,3.7-0.1,5.5v2.2c0,0.9,0.1,5.3,0.1,6.3
		c1-0.9,2.1-2,3.2-4.5c-0.6-1.8-1-3.7-1.1-7.1c-0.2,0-0.9,0.3-1.1,0.3c-0.2,0-0.4-0.1-0.4-0.5c0-0.2,0.1-0.9,0.6-0.9
		c0.2,0,1.2,0.1,1.4,0.1H21.9z M12.8,103.5c0,0.5-0.1,3.2-0.1,3.8c1-0.2,2-0.5,2.5-0.6c0-0.5,0-2.6,0.1-3.2H12.8z M15.3,102.5
		c0-1.3,0-1.8,0-3h-2.5c0,1.5-0.1,2.1-0.1,3H15.3z M15.4,98.6c0-0.2,0-2.2,0-2.3c0-0.1,0-0.7-0.1-0.7H13c0,0.4-0.1,2.5-0.1,3H15.4z
		 M19.8,97.9c0.2,3,0.5,4.4,1.1,5.8c0.6-1.9,1-3.6,1.2-5.8C21.5,97.9,20.7,97.9,19.8,97.9z"/>
	<path class="st1" d="M35.7,97.4c0.3-0.5,0.8-0.9,1.4-0.9c0.5,0,0.9,0.5,0.9,1c0,0.2-0.2,0.9-0.2,1.1v3.4c0,0.6,0.1,3.7,0.1,4.4
		c0,0.7,0,1.5-1.2,1.5c-0.7,0-0.7-0.2-0.7-1.3h-3.1c0,0.4,0,1,0,1.3c0,0.7-0.8,1.2-1.2,1.2c-0.2,0-0.6-0.2-0.6-0.9
		c0-0.7,0.2-5.5,0.2-6.6c0-0.6,0-1.7-0.1-3c-0.2-0.1-0.4-0.3-0.4-0.5c0-0.5,0.7-1.5,1.3-1.5c0.3,0,0.7,0.2,0.8,0.8H35.7z
		 M35.9,105.4v-7.1h-3.1v7.1H35.9z M39.5,112.1c-2.3,1.8-4.5,3-5.1,3c-0.1,0-0.3-0.1-0.3-0.3c0-0.1,0.1-0.2,0.7-0.6
		c0.8-0.5,5.2-3.8,7.2-7.6c0.5-0.9,0.6-1.1,1.2-1.1c0.7,0,0.9,0.5,0.9,0.9C44.1,107.3,41.6,110.3,39.5,112.1z M50.7,103.6
		c0.2-0.4,0.6-1,1.2-1c0.7,0,1.4,0.6,1.4,1.3c0,0.6-0.8,0.7-1.3,0.7c-0.8,0-4.8,0-5.7,0c1.5,2.6,4.4,6,8.8,8
		c0.7,0.3,0.8,0.3,0.8,0.4c0,0.2-2.4,1.3-3,1.3c-0.9,0-4.3-2.7-6.8-8.6c0,0.5,0.2,8.2,0.2,8.4c0,0.2,0.1,1.3,0.1,1.6
		c0,0.8-1,1.5-1.6,1.5c-0.3,0-0.7-0.2-0.7-0.9c0-0.2,0.1-1.3,0.1-1.6c0.2-2.6,0.3-6.7,0.3-10.1h-3.5c-0.6,0-1.1,0.2-1.8,0.4
		c-0.1,0-0.3,0.1-0.4,0.1c-0.5,0-0.5-0.5-0.5-0.6c0-0.3,0.2-1,0.7-1c0.1,0,0.8,0.2,0.9,0.2h4.5l-0.1-4.2h-2.8
		c-0.2,0-1.3,0.3-1.5,0.3c-0.1,0-0.6,0-0.6-0.5s0.3-1.1,0.9-1.1c0.1,0,0.8,0.2,0.9,0.2h3.1c0-1.8,0-2.3-0.1-3
		c-0.5-0.7-0.5-0.8-0.5-0.9c0-0.7,0.8-1.6,1.6-1.6c0.6,0,0.9,0.6,0.9,1.2c0,0.1-0.1,0.8-0.1,0.9c-0.1,0.5-0.1,3.1-0.1,3.4H49
		c0.1-0.2,0.6-0.9,1.1-0.9c0.6,0,1.4,0.6,1.4,1.3c0,0.7-0.8,0.7-1.3,0.7H46l-0.1,4.2H50.7z"/>
	<path class="st2" d="M63.3,101.6c1.6-2.8,3.2-3.5,5.6-3.6c0.6,0.6,1.3,2,1.3,2.8c0,0.3-0.5,0.6-0.7,0.6c-0.2,0-0.7-0.5-0.7-0.6
		c-0.5-0.6-0.9-0.7-1.3-0.7c-2.4,0-4.1,3-4.1,4.1v3.7c0,0.7,0,3.5,0.1,3.9c0,0.2,0.1,0.4,0.5,0.6c0.5,0.3,0.6,0.4,0.6,0.7
		c0,0.6-0.6,0.6-1.7,0.6c-1.7,0-2-0.1-2-0.9c0-1.1,0.2-6.2,0.2-7.4c0-0.6,0-4.8-0.1-5.1c-0.1-0.4-0.4-0.6-1-0.6
		c-0.5,0-0.9,0-0.9-0.6c0-0.4,0.2-0.5,0.7-0.6c0.4-0.1,2.6-0.5,2.9-0.5c0.5,0,0.7,0.5,0.7,0.7L63.3,101.6z"/>
	<path class="st2" d="M85.8,113.8c-0.6,0-1.3-0.7-1.7-2.3c-0.8,0.7-2.8,2.4-5.5,2.4c-2.6,0-4.3-1.7-4.3-4c0-4,4.2-5,9.5-6.1
		c0-1.2,0-4.7-3.1-4.7c-0.7,0-2.4,0.2-3.6,2.3c-0.3,0.6-0.4,0.7-0.7,0.7c-0.3,0-0.7-0.2-0.7-0.7c0-0.7,0.9-2.2,1.4-2.7
		c0.6-0.5,2.5-0.8,3.9-0.8c4.5,0,5.3,3.3,5.3,5.5c0,0.4,0,2.4,0,2.8c0,1.2,0.1,3.3,0.2,4.2c0.1,0.9,0.4,1.7,1.2,2.1
		c0.7,0.3,0.8,0.4,0.8,0.6c0,0.5-0.4,0.6-0.7,0.6H85.8z M83.8,105.1c-4.1,0.2-7.2,1.9-7.2,4.4c0,1.6,1.5,2.6,2.9,2.6
		c0.9,0,2.4-0.4,4.4-1.8C83.9,108.5,83.9,107.8,83.8,105.1z"/>
	<path class="st2" d="M97.1,100.4l0,9.5c0,1.6,0.3,2.5,2,2.5c0.9,0,1.9-0.2,1.9-0.3c0.2-0.1,0.6-0.2,0.7-0.2c0.1,0,0.3,0.2,0.3,0.4
		c0,0.8-2.3,1.5-3.6,1.5c-3.1,0-3.7-1.6-3.7-4.4c0-1.3,0-7.6,0-9h-0.3c-0.3,0-1.5,0.1-1.7,0.1c-0.3,0-0.6-0.1-0.6-0.6
		c0-0.6,0.2-0.9,0.7-0.9l2,0c0-0.5,0-2.9,0-3.5V95c0-1,1.3-1.1,1.8-1.1s0.7,0.2,0.7,0.9s-0.1,3.7-0.1,4.4l2-0.1
		c0.2,0,1.4-0.1,1.7-0.1c0.4,0,0.6,0.2,0.6,0.7c0,0.6-0.4,0.9-0.7,0.9l-2.4-0.1L97.1,100.4z"/>
	<path class="st2" d="M108.6,106.3c0,2.8,1.6,6.1,5.2,6.1c1.1,0,2.8-0.2,4.5-1.6c0.2-0.1,1-0.9,1.2-0.9c0.3,0,0.5,0.3,0.5,0.6
		c0,0.2,0,0.3-1.3,1.7c-0.6,0.6-1.7,1.8-4.9,1.8c-3.8,0-7.6-2.2-7.6-7.6c0-4.6,3-8.2,7.4-8.2c4.9,0,5.7,4,5.7,5.5
		c0,0.3,0,1.3-1.3,1.3c-0.2,0-0.9-0.2-1.1-0.2c-3.8,0-5.6,0-8.3,0.1C108.6,105.6,108.6,106,108.6,106.3z M113.6,99.2
		c-0.6,0-3.2,0.1-4.6,4.2c0.4,0,1.9,0.1,2.8,0.1c2.2,0,3.7,0,5.2-0.1C117,102.2,116.7,99.2,113.6,99.2z"/>
</g>
<g>
	<defs>
		<rect id="SVGID_1_" x="56.8" y="-0.2" width="33.6" height="75.9"/>
	</defs>
	<clipPath id="SVGID_2_">
		<use xlink:href="#SVGID_1_"  style="overflow:visible;"/>
	</clipPath>
	<path class="st3" d="M56.8,4.7c-18.1,0-32.7,14.6-32.7,32.7c0,25.3,32.7,38.3,32.7,38.3s32.7-13,32.7-38.3
		C89.5,19.4,74.9,4.7,56.8,4.7z M56.8,61.8c-13.8,0-25-11.2-25-25c0-13.8,11.2-25,25-25s25,11.2,25,25
		C81.8,50.6,70.6,61.8,56.8,61.8z"/>
</g>
</svg>
