<?xml version="1.0" encoding="utf-8"?>
<!-- Generator: Adobe Illustrator 19.2.1, SVG Export Plug-In . SVG Version: 6.00 Build 0)  -->
<svg version="1.1" id="レイヤー_1" xmlns="http://www.w3.org/2000/svg" xmlns:xlink="http://www.w3.org/1999/xlink" x="0px"
	 y="0px" width="150px" height="150px" viewBox="0 0 150 150" style="enable-background:new 0 0 150 150;" xml:space="preserve">
<style type="text/css">
	.st0{fill:#F15A24;}
	.st1{fill:#666666;stroke:#666666;stroke-width:0.2;stroke-miterlimit:10;}
	.st2{fill:#666666;}
	.st3{clip-path:url(#SVGID_2_);fill:#D84012;}
</style>
<path class="st0" d="M71,6.3c-22.6,0-40.9,18.3-40.9,40.9C30.1,78.8,71,95,71,95s40.9-16.2,40.9-47.9C111.9,24.6,93.6,6.3,71,6.3z
	 M71,77.6c-17.2,0-31.2-14-31.2-31.2c0-17.2,14-31.2,31.2-31.2s31.2,14,31.2,31.2C102.2,63.6,88.2,77.6,71,77.6z"/>
<g>
	<path class="st1" d="M10.8,132.8c0.3-0.4,0.6-0.8,1.1-0.8c0.7,0,1.1,0.6,1.1,1.2c0,0.6-0.8,0.6-1.3,0.6c-0.2,0-1.8,0-2.7,0
		c-0.1,3.1-0.1,4.1-0.2,5.8c2.7,0.8,12.8,3.6,17.8,3.6c1.8,0,3.6-0.2,3.7-0.2c0.5-0.1,1.6-0.2,1.9-0.2c0.1,0,0.4,0.1,0.4,0.3
		c0,0.8-5,3.4-6.4,3.4c-3.5,0-11.9-3.2-13.2-3.7c-5.7-2.2-6.2-2.4-8.7-2.4c-1.4,3.1-3.1,4-3.8,4.4c-0.1,0-0.2,0.1-0.2,0.1
		c-0.1,0-0.3,0-0.3-0.2c0-0.1,0.9-1.1,1-1.3c1.8-2.5,2.4-6.3,2.4-8.7c0-0.2-0.2-1.4-0.2-1.6c0-0.5,0.6-1.4,1.3-1.4
		c1.1,0,1.1,1.2,1.1,1.6c0,0.4,0,2.9-0.8,6c0.3,0,0.5-0.1,0.6-0.1c0.8,0,1.1,0.1,1.5,0.1c0.1-2.3,0.1-3.6,0.1-6.9
		c0-0.2,0-1.6-0.1-1.9c0-0.1-0.2-0.6-0.2-0.7c0-0.1,0-0.7,0.6-1.1H4.9c-0.1,0-1.6,0-1.7,0c-0.2,0-1.3,0.4-1.6,0.4S1,129,1,128.7
		c0-0.2,0-1.2,0.9-1.2c0.1,0,0.3,0,0.5,0.1c0.4,0.1,3.6,0.1,4.4,0.1v-4H4.3c-0.3,0-1.5,0.3-1.8,0.3c-0.2,0-0.5-0.2-0.5-0.5
		c0-0.4,0.3-1.1,0.9-1.1c0.1,0,0.9,0.1,1,0.1h3c0-0.9,0-2.5-0.1-3.3c-0.2-0.3-0.3-0.6-0.3-0.7c0-0.9,1-1.9,2-1.9
		c0.4,0,0.8,0.3,0.8,1c0,0.2,0,0.3-0.1,0.8c-0.1,0.6-0.2,3.3-0.2,4.1h1.4c0.3-0.4,0.6-0.8,1.1-0.8c0.6,0,1.4,0.6,1.4,1.4
		c0,0.6-0.6,0.6-1,0.6H8.9c0,0.8-0.1,3.1-0.1,4l2,0c0.1-0.3,0.4-0.9,1.1-0.9c0.6,0,1.4,0.8,1.4,1.4c0,0.7-0.7,0.7-0.9,0.7
		c-0.5,0-3,0-3.6,0c0.3,0.4,0.3,0.8,0.3,1.2c0,0.2,0,1.3-0.1,2.8H10.8z M27.4,121.7c0.2-0.3,0.6-1,1.1-1c0.7,0,1.6,1,1.6,1.6
		c0,0.2,0,0.2-0.5,0.8c-0.4,3.2-1,5.6-2.5,8.9c1.3,1.7,2.9,3.3,4.6,4.4c0.1,0,1.3,0.9,1.3,0.9c0,0.4-2.6,1.4-3.1,1.4
		c-0.7,0-2.4-1.9-4-4.8c-2,2.6-4.1,3.8-5,4.2v1.2c0,0.8-0.5,2.1-1.5,2.1c-0.8,0-0.8-1.1-0.8-1.7c0-0.7,0.2-4.2,0.2-5
		c-2.6,1.2-5.5,2.6-6.5,2.6c-0.6,0-1.4-0.3-1.4-1.2c0-0.4,0.1-0.7,0.6-0.9c0.3-0.1,1.2-0.2,2.3-0.4c0.1-2.5,0.2-7,0.2-13
		c0-1.1,0-1.6-0.1-2h-0.9c-0.2,0-1.2,0.3-1.4,0.3c-0.3,0-0.5-0.2-0.5-0.5c0-0.4,0.3-1.1,0.8-1.1c0.1,0,0.8,0.1,1,0.1h9
		c0.3-0.4,0.7-1,1.3-1c0.7,0,1.6,0.9,1.6,1.6c0,0.6-0.7,0.6-1.1,0.6h-2.7c-0.1,2.3-0.2,4.6-0.2,6.9v2.8c0,1.1,0.1,6.6,0.1,7.8
		c1.2-1.1,2.6-2.6,4-5.7c-0.7-2.2-1.3-4.6-1.4-8.9c-0.2,0-1.1,0.3-1.3,0.3c-0.2,0-0.5-0.1-0.5-0.6c0-0.2,0.2-1.1,0.7-1.1
		c0.3,0,1.4,0.1,1.7,0.1H27.4z M16,129.7c0,0.7-0.1,4-0.1,4.7c1.3-0.3,2.5-0.6,3.1-0.8c0-0.6,0-3.3,0.1-3.9H16z M19.1,128.5
		c0-1.6,0-2.2,0-3.7H16c0,1.9-0.1,2.6-0.1,3.7H19.1z M19.2,123.6c0-0.3,0-2.7,0-2.8c0-0.1,0-0.9-0.1-0.9h-2.8c0,0.5-0.1,3.2-0.2,3.7
		H19.2z M24.7,122.8c0.2,3.7,0.7,5.5,1.3,7.2c0.7-2.4,1.2-4.5,1.5-7.3C26.8,122.7,25.8,122.8,24.7,122.8z"/>
	<path class="st1" d="M44.6,122.1c0.4-0.6,1-1.1,1.7-1.1c0.7,0,1.1,0.6,1.1,1.2c0,0.2-0.3,1.1-0.3,1.4v4.2c0,0.8,0.1,4.6,0.1,5.5
		c0,0.9,0,1.9-1.4,1.9c-0.9,0-0.9-0.2-0.9-1.6H41c0,0.5,0,1.2,0,1.7c0,0.9-0.9,1.5-1.5,1.5c-0.2,0-0.8-0.2-0.8-1.1
		c0-0.8,0.3-6.9,0.3-8.2c0-0.8,0-2.1-0.1-3.7c-0.2-0.1-0.5-0.3-0.5-0.6c0-0.6,0.8-1.8,1.7-1.8c0.3,0,0.8,0.3,1,1H44.6z M44.9,132.2
		v-8.8H41v8.8H44.9z M49.3,140.4c-2.8,2.2-5.6,3.7-6.4,3.7c-0.1,0-0.4-0.2-0.4-0.3c0-0.2,0.1-0.2,0.8-0.7c1-0.6,6.5-4.8,9.1-9.5
		c0.6-1.2,0.7-1.3,1.5-1.3c0.8,0,1.1,0.6,1.1,1.2C55.1,134.5,52,138.3,49.3,140.4z M63.3,129.9c0.3-0.5,0.7-1.2,1.5-1.2
		c0.8,0,1.7,0.7,1.7,1.6c0,0.8-1,0.8-1.6,0.8c-1,0-6,0-7.2,0c1.9,3.3,5.6,7.5,11,10c0.9,0.4,1,0.4,1,0.5c0,0.3-3,1.7-3.8,1.7
		c-1.1,0-5.4-3.3-8.6-10.7c0,0.6,0.2,10.3,0.2,10.5c0,0.3,0.1,1.6,0.1,2c0,1-1.2,1.9-2,1.9c-0.4,0-0.9-0.3-0.9-1.1
		c0-0.3,0.1-1.6,0.1-2c0.3-3.3,0.3-8.4,0.4-12.6h-4.4c-0.7,0-1.4,0.2-2.2,0.4c-0.1,0-0.3,0.1-0.4,0.1c-0.6,0-0.6-0.7-0.6-0.8
		c0-0.4,0.3-1.2,0.9-1.2c0.2,0,1,0.3,1.2,0.3h5.7l-0.1-5.3H52c-0.3,0-1.6,0.4-1.9,0.4c-0.1,0-0.8,0-0.8-0.6s0.3-1.3,1.2-1.3
		c0.2,0,0.9,0.2,1.1,0.2h3.8c0-2.2,0-2.8-0.1-3.8c-0.6-0.9-0.6-0.9-0.6-1.2c0-0.8,1-2,2-2c0.7,0,1.1,0.7,1.1,1.4
		c0,0.2-0.1,0.9-0.1,1.1c-0.1,0.6-0.2,3.8-0.2,4.3h3.6c0.2-0.3,0.8-1.2,1.4-1.2c0.7,0,1.7,0.8,1.7,1.7c0,0.9-1,0.9-1.6,0.9h-5.3
		l-0.1,5.3H63.3z"/>
	<path class="st2" d="M79.1,127.4c2-3.6,4-4.4,7-4.5c0.7,0.7,1.7,2.5,1.7,3.4c0,0.4-0.6,0.7-0.9,0.7c-0.3,0-0.9-0.6-0.9-0.7
		c-0.6-0.7-1.1-0.8-1.6-0.8c-2.9,0-5.2,3.8-5.2,5.2v4.7c0,0.8,0,4.3,0.1,4.9c0,0.3,0.1,0.5,0.6,0.8c0.6,0.4,0.8,0.5,0.8,0.9
		c0,0.8-0.8,0.8-2.1,0.8c-2.1,0-2.5-0.1-2.5-1.1c0-1.3,0.2-7.8,0.2-9.3c0-0.7,0-6-0.1-6.4c-0.2-0.5-0.5-0.8-1.3-0.8
		c-0.6,0-1.1,0-1.1-0.7c0-0.5,0.3-0.6,0.9-0.8c0.5-0.2,3.2-0.7,3.6-0.7c0.6,0,0.9,0.6,0.9,0.9L79.1,127.4z"/>
	<path class="st2" d="M107.3,142.6c-0.8,0-1.7-0.9-2.1-2.8c-1,0.9-3.5,3-6.9,3c-3.2,0-5.3-2.1-5.3-5c0-5,5.2-6.2,11.8-7.7
		c0-1.5,0-5.9-3.8-5.9c-0.9,0-3,0.3-4.5,2.9c-0.4,0.8-0.5,0.9-0.9,0.9c-0.3,0-0.9-0.2-0.9-0.9c0-0.9,1.1-2.8,1.7-3.3
		c0.8-0.6,3.1-1,4.8-1c5.6,0,6.6,4.2,6.6,6.9c0,0.5,0,2.9,0,3.5c0,1.5,0.1,4.1,0.2,5.3c0.1,1.2,0.5,2.1,1.5,2.6c0.9,0.4,1,0.5,1,0.8
		c0,0.6-0.5,0.7-0.8,0.7H107.3z M104.7,131.8c-5.1,0.2-8.9,2.4-8.9,5.5c0,2,1.9,3.3,3.7,3.3c1.1,0,3.1-0.5,5.5-2.3
		C104.8,136,104.8,135.1,104.7,131.8z"/>
	<path class="st2" d="M121.4,125.9l0,11.8c0,2,0.4,3.1,2.4,3.1c1.2,0,2.3-0.3,2.4-0.3c0.2-0.1,0.8-0.2,0.8-0.2
		c0.2,0,0.4,0.2,0.4,0.5c0,1-2.9,1.8-4.5,1.8c-3.9,0-4.6-2-4.6-5.5c0-1.6,0-9.4,0-11.2H118c-0.3,0-1.9,0.1-2.1,0.1
		c-0.4,0-0.7-0.2-0.7-0.7c0-0.7,0.2-1.1,0.9-1.1l2.4,0c0-0.6,0-3.7,0-4.4v-0.8c0-1.3,1.6-1.4,2.3-1.4s0.9,0.3,0.9,1.1
		s-0.1,4.6-0.1,5.5l2.5-0.1c0.3,0,1.8-0.2,2.1-0.2c0.5,0,0.8,0.2,0.8,0.9c0,0.7-0.5,1.1-0.9,1.1l-3-0.1L121.4,125.9z"/>
	<path class="st2" d="M135.7,133.2c0,3.4,2,7.6,6.5,7.6c1.4,0,3.5-0.3,5.7-2c0.2-0.2,1.2-1.2,1.5-1.2c0.3,0,0.6,0.4,0.6,0.8
		c0,0.3,0,0.4-1.7,2.1c-0.8,0.8-2.1,2.2-6.2,2.2c-4.7,0-9.5-2.8-9.5-9.5c0-5.7,3.7-10.2,9.3-10.2c6.1,0,7.2,5,7.2,6.9
		c0,0.4,0,1.6-1.6,1.6c-0.2,0-1.2-0.2-1.4-0.2c-4.7,0-7,0-10.4,0.1C135.8,132.4,135.7,132.8,135.7,133.2z M142,124.4
		c-0.7,0-4,0.1-5.8,5.2c0.5,0,2.4,0.1,3.6,0.1c2.8,0,4.6,0,6.5-0.2C146.2,128.2,145.9,124.4,142,124.4z"/>
</g>
<g>
	<defs>
		<rect id="SVGID_1_" x="71" y="0.1" width="42" height="94.9"/>
	</defs>
	<clipPath id="SVGID_2_">
		<use xlink:href="#SVGID_1_"  style="overflow:visible;"/>
	</clipPath>
	<path class="st3" d="M71,6.3c-22.6,0-40.9,18.3-40.9,40.9C30.1,78.8,71,95,71,95s40.9-16.2,40.9-47.9C111.9,24.6,93.6,6.3,71,6.3z
		 M71,77.6c-17.2,0-31.2-14-31.2-31.2c0-17.2,14-31.2,31.2-31.2s31.2,14,31.2,31.2C102.2,63.6,88.2,77.6,71,77.6z"/>
</g>
</svg>
